<?xml version="1.0" encoding="utf-8"?><svg xml:space="preserve" viewBox="0 0 100 100" y="0px" x="0px" xmlns:xlink="http://www.w3.org/1999/xlink" xmlns="http://www.w3.org/2000/svg" id="圖層_1" version="1.1" width="200px" height="200px" style="width:100%;height:100%;background-size:initial;background-repeat-y:initial;background-repeat-x:initial;background-position-y:initial;background-position-x:initial;background-origin:initial;background-image:initial;background-color:rgb(255, 255, 255);background-clip:initial;background-attachment:initial;animation-play-state:paused" ><g class="ldl-scale" style="transform-origin:50% 50%;transform:rotate(0deg) scale(0.8, 0.8);animation-play-state:paused" ><path d="M50.36,38.89C67.6,29.4,67.6,29.4,67.6,29.4l-2.98-13.23L69,12.49" stroke-miterlimit="10" stroke-linejoin="round" stroke-linecap="round" stroke-width="3" stroke="#000000" fill="none" style="animation-play-state:paused" ></path>
<path d="M50.46,41.03c18.93,3.55,18.93,3.55,18.93,3.55l4.41-12.71l5.47-0.13" stroke-miterlimit="10" stroke-linejoin="round" stroke-linecap="round" stroke-width="3" stroke="#000000" fill="none" style="animation-play-state:paused" ></path>
<polyline points="49.74,43.68 76.22,51.46 69.6,74.79 78.7,76.74" stroke-miterlimit="10" stroke-linejoin="round" stroke-linecap="round" stroke-width="3" stroke="#000000" fill="none" style="animation-play-state:paused" ></polyline>
<path d="M48.39,38.89C31.16,29.4,31.16,29.4,31.16,29.4l2.98-13.23l-4.38-3.68" stroke-miterlimit="10" stroke-linejoin="round" stroke-linecap="round" stroke-width="3" stroke="#000000" fill="none" style="animation-play-state:paused" ></path>
<path d="M48.29,41.03c-18.93,3.55-18.93,3.55-18.93,3.55l-4.41-12.71l-5.47-0.13" stroke-miterlimit="10" stroke-linejoin="round" stroke-linecap="round" stroke-width="3" stroke="#000000" fill="none" style="animation-play-state:paused" ></path>
<polyline points="49.02,43.68 22.54,51.46 29.16,74.79 20.06,76.74" stroke-miterlimit="10" stroke-linejoin="round" stroke-linecap="round" stroke-width="3" stroke="#000000" fill="none" style="animation-play-state:paused" ></polyline>
<line y2="94.02" x2="48.88" y1="85.27" x1="48.88" stroke-miterlimit="10" stroke-linejoin="round" stroke-linecap="round" stroke-width="3" stroke="#000000" fill="none" style="animation-play-state:paused" ></line>
<g style="animation-play-state:paused" ><g style="animation-play-state:paused" ><path d="M50.13,16.01l6.57-7.77L50.13,16.01z" stroke-miterlimit="10" stroke-linejoin="round" stroke-linecap="round" stroke-width="3" stroke="#000000" fill="#F7ADB3" style="fill:rgb(247, 173, 179);animation-play-state:paused" ></path>
<ellipse ry="0.88" rx="1.8" cy="7.53" cx="57.38" stroke-miterlimit="10" stroke-linejoin="round" stroke-linecap="round" stroke-width="3" stroke="#000000" transform="matrix(0.5806 -0.8142 0.8142 0.5806 17.931 49.8796)" style="animation-play-state:paused" ></ellipse></g>
<g style="animation-play-state:paused" ><path d="M48.58,16.01l-6.57-7.77L48.58,16.01z" stroke-miterlimit="10" stroke-linejoin="round" stroke-linecap="round" stroke-width="3" stroke="#000000" fill="#F7ADB3" style="fill:rgb(247, 173, 179);animation-play-state:paused" ></path>
<ellipse ry="1.8" rx="0.88" cy="7.53" cx="41.33" stroke-miterlimit="10" stroke-linejoin="round" stroke-linecap="round" stroke-width="3" stroke="#000000" transform="matrix(0.8142 -0.5806 0.5806 0.8142 3.3049 25.3957)" style="animation-play-state:paused" ></ellipse></g>
<path d="M58.43,29.5c-0.23,1.27-1.1,2.34-2.32,2.83c-1.6,0.63-3.79,1.24-6.43,1.3c-2.95,0.06-5.39-0.6-7.12-1.28 c-1.24-0.49-2.14-1.56-2.38-2.85c-0.19-1.02-0.37-2.05-0.56-3.07c-1.06-5.89,3.57-11.28,9.68-11.28h0c6.11,0,10.74,5.4,9.68,11.28 L58.43,29.5z" stroke-miterlimit="10" stroke-linejoin="round" stroke-linecap="round" stroke-width="3" stroke="#000000" fill="#F4E069" style="fill:rgb(244, 224, 105);animation-play-state:paused" ></path></g>
<path d="M51.84,54.2 c-0.41,1.07-1.27,2.94-2.42,3.06c-1.28,0.12-2.23-1.98-2.64-3.06c-0.16-4.32-0.33-8.64-0.49-12.96c-0.19-4.93,0.63-9.45,1.7-9.45 h2.65c1.07,0,1.88,4.52,1.7,9.45L51.84,54.2z" stroke-miterlimit="10" stroke-linejoin="round" stroke-linecap="round" stroke-width="3" stroke="#000000" style="animation-play-state:paused" ></path>
<g style="animation-play-state:paused" ><path d="M41.1,81.38 h16.35c2.17-2.47,4.26-5.46,5.51-8.75H35.6C36.83,75.92,38.91,78.91,41.1,81.38z" stroke-miterlimit="10" stroke-linejoin="round" stroke-linecap="round" stroke-width="3" stroke="#000000" style="animation-play-state:paused" ></path>
<path d="M49.31,88.67c0,0,4.21-2.82,8.14-7.29H41.1C45.05,85.85,49.31,88.67,49.31,88.67z" stroke-miterlimit="10" stroke-linejoin="round" stroke-linecap="round" stroke-width="3" stroke="#000000" fill="#F4E069" style="fill:rgb(244, 224, 105);animation-play-state:paused" ></path>
<path d="M37.69,53.18 c-1.49,2.77-2.53,6.09-2.97,9.72h29.22c-0.41-3.63-1.44-6.95-2.94-9.72H37.69z" stroke-miterlimit="10" stroke-linejoin="round" stroke-linecap="round" stroke-width="3" stroke="#000000" style="animation-play-state:paused" ></path>
<path d="M49.31,44.87c-4.71,0-8.91,3.25-11.62,8.31H61C58.27,48.12,54.02,44.87,49.31,44.87z" stroke-miterlimit="10" stroke-linejoin="round" stroke-linecap="round" stroke-width="3" stroke="#000000" fill="#F4E069" style="fill:rgb(244, 224, 105);animation-play-state:paused" ></path>
<path d="M34.48,66.77c0,2.03,0.42,3.99,1.12,5.86h27.35c0.71-1.86,1.15-3.83,1.18-5.86c0.02-1.32-0.05-2.61-0.19-3.87H34.72 C34.57,64.16,34.48,65.45,34.48,66.77z" stroke-miterlimit="10" stroke-linejoin="round" stroke-linecap="round" stroke-width="3" stroke="#000000" fill="#F4E069" style="fill:rgb(244, 224, 105);animation-play-state:paused" ></path></g>
<ellipse ry="12.83" rx="18.33" cy="35.12" cx="69.88" stroke-miterlimit="10" stroke-linejoin="round" stroke-linecap="round" stroke-width="3" stroke="#000000" fill="#FFFFFF" transform="matrix(0.945 -0.327 0.327 0.945 -7.6418 24.7788)" style="fill:rgb(255, 255, 255);animation-play-state:paused" ></ellipse>
<ellipse ry="18.33" rx="12.83" cy="47.76" cx="69.88" stroke-miterlimit="10" stroke-linejoin="round" stroke-linecap="round" stroke-width="3" stroke="#000000" fill="#FFFFFF" transform="matrix(0.327 -0.945 0.945 0.327 1.899 98.1843)" style="fill:rgb(255, 255, 255);animation-play-state:paused" ></ellipse>
<ellipse ry="18.35" rx="12.82" cy="35.12" cx="30.12" stroke-miterlimit="10" stroke-linejoin="round" stroke-linecap="round" stroke-width="3" stroke="#000000" fill="#FFFFFF" transform="matrix(0.3459 -0.9383 0.9383 0.3459 -13.251 51.231)" style="fill:rgb(255, 255, 255);animation-play-state:paused" ></ellipse>
<ellipse ry="12.83" rx="18.33" cy="47.76" cx="30.12" stroke-miterlimit="10" stroke-linejoin="round" stroke-linecap="round" stroke-width="3" stroke="#000000" fill="#FFFFFF" transform="matrix(0.945 -0.327 0.327 0.945 -13.96 12.4725)" style="fill:rgb(255, 255, 255);animation-play-state:paused" ></ellipse>
<metadata xmlns:d="https://loading.io/stock/" style="animation-play-state:paused" ><d:name style="animation-play-state:paused" >insect</d:name>


<d:tags style="animation-play-state:paused" >insect,bug,animal,biology,hymenoptera,bee</d:tags>


<d:license style="animation-play-state:paused" >by</d:license>


<d:slug style="animation-play-state:paused" >rmy0s5</d:slug></metadata></g><!-- generated by https://loading.io/ --></svg>