<?xml version="1.0" encoding="utf-8"?><svg xml:space="preserve" viewBox="0 0 128 128" y="0px" x="0px" xmlns:xlink="http://www.w3.org/1999/xlink" xmlns="http://www.w3.org/2000/svg" id="圖層_1" version="1.1" width="200px" height="200px" style="width:100%;height:100%;background-size:initial;background-repeat-y:initial;background-repeat-x:initial;background-position-y:initial;background-position-x:initial;background-origin:initial;background-image:initial;background-color:rgb(255, 255, 255);background-clip:initial;background-attachment:initial;animation-play-state:paused" ><g class="ldl-scale" style="transform-origin:50% 50%;transform:rotate(0deg) scale(0.8, 0.8);animation-play-state:paused" ><path d="M12.52,32.53h104.96v62.93H12.52V32.53z" fill="#E6E6E6" style="fill:rgb(230, 230, 230);animation-play-state:paused" ></path>
<circle r="21.97" cy="64" cx="43.73" fill="#A0C8D7" style="fill:rgb(160, 200, 215);animation-play-state:paused" ></circle>
<g style="animation-play-state:paused" ><path d="M62.22,87.82h-37l2.63-14.57c0.53-2.95,2.86-5.24,5.81-5.73l10.06-1.67l10.06,1.67 c2.95,0.49,5.28,2.78,5.81,5.73C59.59,73.26,62.22,87.82,62.22,87.82z" fill="#E0E0E0" style="fill:rgb(224, 224, 224);animation-play-state:paused" ></path>
<g style="animation-play-state:paused" ><path d="M46.66,72.26l-2.94,2.48l-2.94-2.48v-4.84h5.88V72.26z" fill="#C33736" style="fill:rgb(195, 55, 54);animation-play-state:paused" ></path>
<path d="M46.87,87.82h-6.33l1.92-14.51h2.5L46.87,87.82z" fill="#C33736" style="fill:rgb(195, 55, 54);animation-play-state:paused" ></path></g>
<path d="M40.06,66.64l-2.55-2.05l-2.55,2.71l5.62,6.52l2.35-6.01L40.06,66.64z" fill="#FFFFFF" style="fill:rgb(255, 255, 255);animation-play-state:paused" ></path>
<path d="M47.38,66.64l2.54-2.05l2.55,2.71l-5.62,6.52l-2.35-6.01L47.38,66.64z" fill="#FFFFFF" style="fill:rgb(255, 255, 255);animation-play-state:paused" ></path>
<g style="animation-play-state:paused" ><path d="M52.48,56.25c0,5.92-3.92,12.29-8.76,12.29s-8.76-6.37-8.76-12.29s3.92-9.15,8.76-9.15 S52.48,50.33,52.48,56.25z" fill="#F4E6C8" style="fill:rgb(244, 230, 200);animation-play-state:paused" ></path>
<path d="M43.72,47.1c-4.84,0-8.76,3.23-8.76,9.15c0,0.32,0.01,0.64,0.04,0.96c3.9-0.17,7.39-1.63,9.84-3.87 c1.21,2.34,3.29,3.89,5.65,3.89c0.69,0,1.35-0.13,1.98-0.38c0.01-0.2,0.01-0.4,0.01-0.6C52.48,50.33,48.56,47.1,43.72,47.1z" fill="#323232" style="fill:rgb(50, 50, 50);animation-play-state:paused" ></path></g></g>
<path d="M12.52,32.53v62.93h104.96V32.53H12.52z M44.73,85.97c-12.14,0-21.97-9.84-21.97-21.97 c0-12.14,9.84-21.97,21.97-21.97c12.14,0,21.97,9.84,21.97,21.97C66.71,76.14,56.87,85.97,44.73,85.97z" fill="#E6E6E6" style="fill:rgb(230, 230, 230);animation-play-state:paused" ></path>
<path d="z" fill="none" style="animation-play-state:paused" ></path>
<path d="M75.45,51.2h29.87" stroke-miterlimit="12.8" stroke-width="3.84" stroke="#323232" fill="none" style="stroke:rgb(50, 50, 50);animation-play-state:paused" ></path>
<path d="M75.45,64h29.87" stroke-miterlimit="12.8" stroke-width="3.84" stroke="#323232" fill="none" style="stroke:rgb(50, 50, 50);animation-play-state:paused" ></path>
<path d="M74.45,76.8h16" stroke-miterlimit="12.8" stroke-width="3.84" stroke="#323232" fill="none" style="stroke:rgb(50, 50, 50);animation-play-state:paused" ></path>
<path d="z" fill="none" style="animation-play-state:paused" ></path>
<metadata xmlns:d="https://loading.io/stock/" style="animation-play-state:paused" ><d:name style="animation-play-state:paused" >profile</d:name>


<d:tags style="animation-play-state:paused" >profile,namecard,business card,portfolio,self introduction,brief,user info</d:tags>


<d:license style="animation-play-state:paused" >by</d:license>


<d:slug style="animation-play-state:paused" >swtyth</d:slug></metadata></g><!-- generated by https://loading.io/ --></svg>