<?xml version="1.0" encoding="utf-8"?><svg xml:space="preserve" viewBox="0 0 100 100" y="0" x="0" xmlns="http://www.w3.org/2000/svg" id="圖層_1" version="1.1" width="200px" height="200px" xmlns:xlink="http://www.w3.org/1999/xlink" style="width:100%;height:100%;background-size:initial;background-repeat-y:initial;background-repeat-x:initial;background-position-y:initial;background-position-x:initial;background-origin:initial;background-image:initial;background-color:rgb(255, 255, 255);background-clip:initial;background-attachment:initial;animation-play-state:paused" ><g class="ldl-scale" style="transform-origin:50% 50%;transform:rotate(0deg) scale(0.8, 0.8);animation-play-state:paused" ><path stroke-miterlimit="10" stroke-width="3.5" stroke="#333" stroke-linecap="round" fill="#f47e60" d="M65.9 11H15.2c-2.3 0-4.2 1.9-4.2 4.2v69.6c0 2.3 1.9 4.2 4.2 4.2h69.6c2.3 0 4.2-1.9 4.2-4.2V34.1c0-2.1-.8-4.2-2.4-5.7l-15.1-15C70 11.8 68 11 65.9 11z" style="stroke:rgb(51, 51, 51);fill:rgb(244, 126, 96);animation-play-state:paused" ></path>
<path stroke-miterlimit="10" stroke-linecap="round" stroke-width="3.5" stroke="#333" fill="#e0e0e0" d="M24.8 89h50.5V56.3c0-3.5-2.8-6.4-6.4-6.4H31.1c-3.5 0-6.4 2.8-6.4 6.4V89z" style="stroke:rgb(51, 51, 51);fill:rgb(224, 224, 224);animation-play-state:paused" ></path>
<path stroke-miterlimit="10" stroke-linecap="round" stroke-width="3.5" stroke="#333" fill="#e0e0e0" d="M62.6 11H24.8v22.2c0 1.8 1.5 3.3 3.3 3.3h31.3c1.8 0 3.3-1.5 3.3-3.3V11z" style="stroke:rgb(51, 51, 51);fill:rgb(224, 224, 224);animation-play-state:paused" ></path>
<path d="M43.7 11h7.8v16.6h-7.8z" stroke-miterlimit="10" stroke-width="3.5" stroke="#333" stroke-linecap="round" fill="#333" style="stroke:rgb(51, 51, 51);fill:rgb(51, 51, 51);animation-play-state:paused" ></path>
<path d="M35.9 62.3h28.2" stroke-miterlimit="10" stroke-linecap="round" stroke-width="3.5" stroke="#333" fill="none" style="stroke:rgb(51, 51, 51);animation-play-state:paused" ></path>
<path d="M35.9 70.3h28.2" stroke-miterlimit="10" stroke-linecap="round" stroke-width="3.5" stroke="#333" fill="none" style="stroke:rgb(51, 51, 51);animation-play-state:paused" ></path>
<path d="M35.9 78.3h28.2" stroke-miterlimit="10" stroke-linecap="round" stroke-width="3.5" stroke="#333" fill="none" style="stroke:rgb(51, 51, 51);animation-play-state:paused" ></path>
<path stroke-miterlimit="10" stroke-linecap="round" stroke-width="3.5" stroke="#000" opacity=".2" d="M71.5 13.4C70 11.8 68 11 65.9 11h-5.3L41.8 89h43c2.3 0 4.2-1.9 4.2-4.2V34.1c0-2.1-.8-4.2-2.4-5.7l-15.1-15z" style="animation-play-state:paused" ></path>
<path d="M17.8 31.2v1.1" stroke-miterlimit="10" stroke-width="3.5" stroke="#fff" stroke-linecap="round" fill="none" style="stroke:rgb(255, 255, 255);animation-play-state:paused" ></path>
<path d="M17.8 17.9v7.2" stroke-miterlimit="10" stroke-width="3.5" stroke="#fff" stroke-linecap="round" fill="none" style="stroke:rgb(255, 255, 255);animation-play-state:paused" ></path>
<metadata xmlns:d="https://loading.io/stock/" style="animation-play-state:paused" ><d:name style="animation-play-state:paused" >save</d:name>


<d:tags style="animation-play-state:paused" >save,floppy disk,dump,backup,store,storage,write</d:tags>


<d:license style="animation-play-state:paused" >by</d:license>


<d:slug style="animation-play-state:paused" >j1eyvt</d:slug></metadata></g><!-- generated by https://loading.io/ --></svg>